# 3ds Max Wavefront OBJ Exporter v0.97b - (c)2007 guruware
# File Created: 09.07.2020 16:53:05

mtllib head.mtl

#
# object f_head_001
#

v  5.2113 -10.5214 8.1163
v  0.0000 -11.5122 11.8863
v  0.0000 -10.9686 -8.7700
v  5.2421 -10.0465 -5.1003
v  0.0000 11.1613 11.2257
v  8.6320 10.0879 7.5568
v  0.0000 12.6767 0.6467
v  4.7924 -7.1275 13.2303
v  9.8175 -5.9409 -7.5379
v  10.0086 -6.5311 8.9770
v  0.0000 -5.9409 -11.7390
v  0.0000 5.9975 14.0978
v  10.6542 5.3185 9.6418
v  10.6180 5.3891 -7.5880
v  0.0000 5.8014 -12.1782
v  0.0000 11.1805 -9.6669
v  7.3054 9.3467 -5.9159
v  0.0000 -7.2478 13.8451
v  -5.2113 -10.5214 8.1163
v  -5.2421 -10.0465 -5.1003
v  -8.6320 10.0879 7.5568
v  -4.7924 -7.1275 13.2303
v  -10.0086 -6.5311 8.9770
v  -9.8175 -5.9409 -7.5379
v  -10.6542 5.3185 9.6418
v  -10.6180 5.3891 -7.5880
v  -7.3054 9.3467 -5.9159
# 27 vertices

vn 0.4538 -0.8731 0.1784
vn 0.0000 -0.8520 0.5236
vn 0.0000 -0.8538 -0.5206
vn 0.4376 -0.8581 -0.2685
vn 0.0000 0.7950 0.6066
vn 0.6043 0.7328 0.3128
vn -0.0000 0.9993 -0.0365
vn 0.4183 -0.3388 0.8428
vn 0.7713 -0.3792 -0.5112
vn 0.8381 -0.4150 0.3540
vn 0.0000 -0.3456 -0.9384
vn -0.0000 0.2869 0.9580
vn 0.8218 0.2243 0.5237
vn 0.8096 0.2563 -0.5281
vn 0.0000 0.2533 -0.9674
vn 0.0000 0.8073 -0.5902
vn 0.5283 0.7628 -0.3728
vn 0.0000 -0.2227 0.9749
vn -0.4538 -0.8731 0.1784
vn -0.4376 -0.8581 -0.2685
vn -0.6043 0.7328 0.3128
vn -0.4183 -0.3388 0.8428
vn -0.8381 -0.4150 0.3540
vn -0.7713 -0.3792 -0.5112
vn -0.8218 0.2243 0.5237
vn -0.8096 0.2563 -0.5281
vn -0.5283 0.7628 -0.3728
# 27 vertex normals

vt 0.7363 0.2210 0.0000
vt 0.7774 0.0074 0.0000
vt 0.1765 0.1273 0.0000
vt 0.3456 0.2502 0.0000
vt 0.9556 0.8178 0.0000
vt 0.7233 0.7274 0.0000
vt 0.6017 0.9940 0.0000
vt 0.9556 0.1907 0.0000
vt 0.8452 0.3552 0.0000
vt 0.3221 0.3552 0.0000
vt 0.7121 0.3552 0.0000
vt 0.0530 0.3248 0.0000
vt 0.9556 0.6443 0.0000
vt 0.7259 0.6443 0.0000
vt 0.3427 0.6443 0.0000
vt 0.0648 0.7194 0.0000
vt 0.2185 0.9270 0.0000
vt 0.3803 0.7662 0.0000
vt 0.9556 0.3552 0.0000
# 19 texture coords

o f_head_001
g f_head_001
usemtl Material__143
s off
f 1/1/1 2/2/2 3/3/3 4/4/4 
f 5/5/5 6/6/6 7/7/7 
f 2/8/2 1/1/1 8/9/8 
f 4/4/4 9/10/9 10/11/10 1/1/1 
f 3/3/3 11/12/11 9/10/9 4/4/4 
f 12/13/12 13/14/13 6/6/6 5/5/5 
f 13/14/13 14/15/14 6/6/6 
f 14/15/14 15/16/15 16/17/16 17/18/17 
f 12/13/12 8/9/8 13/14/13 
f 9/10/9 14/15/14 13/14/13 10/11/10 
f 14/15/14 9/10/9 11/12/11 15/16/15 
f 7/7/7 17/18/17 16/17/16 
f 2/8/2 8/9/8 18/19/18 
f 8/9/8 12/13/12 18/19/18 
f 17/18/17 7/7/7 6/6/6 
f 13/14/13 8/9/8 10/11/10 
f 8/9/8 1/1/1 10/11/10 
f 6/6/6 14/15/14 17/18/17 
f 3/3/3 2/2/2 19/1/19 20/4/20 
f 5/5/5 7/7/7 21/6/21 
f 2/8/2 22/9/22 19/1/19 
f 23/11/23 24/10/24 20/4/20 19/1/19 
f 3/3/3 20/4/20 24/10/24 11/12/11 
f 21/6/21 25/14/25 12/13/12 5/5/5 
f 25/14/25 21/6/21 26/15/26 
f 26/15/26 27/18/27 16/17/16 15/16/15 
f 12/13/12 25/14/25 22/9/22 
f 24/10/24 23/11/23 25/14/25 26/15/26 
f 26/15/26 15/16/15 11/12/11 24/10/24 
f 7/7/7 16/17/16 27/18/27 
f 2/8/2 18/19/18 22/9/22 
f 22/9/22 18/19/18 12/13/12 
f 27/18/27 21/6/21 7/7/7 
f 25/14/25 23/11/23 22/9/22 
f 22/9/22 23/11/23 19/1/19 
f 21/6/21 27/18/27 26/15/26 
# 14 polygons - 22 triangles

